<svg width="232" height="82" viewBox="0 0 232 82" fill="none" xmlns="http://www.w3.org/2000/svg">
<path d="M112.71 53.7349C110.964 53.7349 109.392 53.4356 107.996 52.8369C106.599 52.2133 105.501 51.3403 104.703 50.2178C103.905 49.0953 103.506 47.7858 103.506 46.2891H108.07C108.17 47.4116 108.607 48.3345 109.38 49.0579C110.178 49.7813 111.288 50.143 112.71 50.143C114.182 50.143 115.329 49.7938 116.152 49.0953C116.975 48.372 117.387 47.449 117.387 46.3265C117.387 45.4535 117.125 44.7426 116.601 44.1938C116.102 43.645 115.466 43.221 114.693 42.9217C113.945 42.6223 112.897 42.2981 111.55 41.9488C109.854 41.4999 108.469 41.0509 107.397 40.6019C106.349 40.1279 105.451 39.4046 104.703 38.4317C103.955 37.4589 103.58 36.1618 103.58 34.5404C103.58 33.0438 103.955 31.7342 104.703 30.6118C105.451 29.4893 106.499 28.6287 107.846 28.03C109.193 27.4314 110.752 27.1321 112.523 27.1321C115.042 27.1321 117.1 27.7681 118.697 29.0403C120.318 30.2875 121.216 32.0086 121.391 34.2037H116.676C116.601 33.2558 116.152 32.4451 115.329 31.7717C114.506 31.0982 113.421 30.7614 112.074 30.7614C110.852 30.7614 109.854 31.0732 109.081 31.6968C108.307 32.3204 107.921 33.2184 107.921 34.3908C107.921 35.189 108.158 35.85 108.632 36.3738C109.13 36.8727 109.754 37.2718 110.502 37.5712C111.251 37.8705 112.273 38.1948 113.571 38.544C115.292 39.0179 116.689 39.4919 117.761 39.9658C118.859 40.4397 119.782 41.1756 120.53 42.1733C121.303 43.1462 121.69 44.4557 121.69 46.102C121.69 47.4241 121.328 48.6713 120.605 49.8437C119.906 51.016 118.871 51.9639 117.499 52.6873C116.152 53.3857 114.556 53.7349 112.71 53.7349ZM130.988 35.8874C131.712 34.9396 132.697 34.1413 133.944 33.4928C135.191 32.8443 136.601 32.52 138.172 32.52C139.968 32.52 141.602 32.969 143.074 33.867C144.57 34.74 145.743 35.9747 146.591 37.5712C147.439 39.1676 147.863 41.001 147.863 43.0713C147.863 45.1417 147.439 47 146.591 48.6463C145.743 50.2677 144.57 51.5399 143.074 52.4628C141.602 53.3608 139.968 53.8098 138.172 53.8098C136.601 53.8098 135.204 53.498 133.982 52.8744C132.759 52.2258 131.762 51.4276 130.988 50.4797V63.2761H126.723V32.8567H130.988V35.8874ZM143.523 43.0713C143.523 41.6495 143.223 40.4273 142.625 39.4045C142.051 38.3569 141.278 37.5712 140.305 37.0473C139.357 36.4986 138.334 36.2242 137.237 36.2242C136.164 36.2242 135.142 36.4986 134.169 37.0473C133.221 37.5961 132.448 38.3943 131.849 39.442C131.275 40.4896 130.988 41.7244 130.988 43.1462C130.988 44.568 131.275 45.8152 131.849 46.8878C132.448 47.9354 133.221 48.7336 134.169 49.2824C135.142 49.8312 136.164 50.1056 137.237 50.1056C138.334 50.1056 139.357 49.8312 140.305 49.2824C141.278 48.7087 142.051 47.8855 142.625 46.8129C143.223 45.7404 143.523 44.4931 143.523 43.0713ZM150.659 43.0713C150.659 41.001 151.083 39.1676 151.931 37.5712C152.804 35.9747 153.977 34.74 155.449 33.867C156.945 32.969 158.592 32.52 160.387 32.52C162.009 32.52 163.418 32.8443 164.616 33.4928C165.838 34.1164 166.811 34.9021 167.534 35.85V32.8567H171.837V53.473H167.534V50.4049C166.811 51.3777 165.825 52.1884 164.578 52.8369C163.331 53.4855 161.909 53.8098 160.313 53.8098C158.542 53.8098 156.92 53.3608 155.449 52.4628C153.977 51.5399 152.804 50.2677 151.931 48.6463C151.083 47 150.659 45.1417 150.659 43.0713ZM167.534 43.1462C167.534 41.7244 167.235 40.4896 166.636 39.442C166.062 38.3943 165.301 37.5961 164.354 37.0473C163.406 36.4986 162.383 36.2242 161.285 36.2242C160.188 36.2242 159.165 36.4986 158.217 37.0473C157.269 37.5712 156.496 38.3569 155.898 39.4045C155.324 40.4273 155.037 41.6495 155.037 43.0713C155.037 44.4931 155.324 45.7404 155.898 46.8129C156.496 47.8855 157.269 48.7087 158.217 49.2824C159.19 49.8312 160.213 50.1056 161.285 50.1056C162.383 50.1056 163.406 49.8312 164.354 49.2824C165.301 48.7336 166.062 47.9354 166.636 46.8878C167.235 45.8152 167.534 44.568 167.534 43.1462ZM176.017 43.1462C176.017 41.0259 176.442 39.1676 177.29 37.5712C178.163 35.9498 179.36 34.7026 180.882 33.8295C182.403 32.9565 184.149 32.52 186.12 32.52C188.614 32.52 190.672 33.1186 192.294 34.316C193.94 35.4883 195.05 37.1721 195.624 39.3671H191.021C190.647 38.3444 190.049 37.5462 189.225 36.9725C188.402 36.3988 187.367 36.1119 186.12 36.1119C184.374 36.1119 182.977 36.7355 181.929 37.9827C180.907 39.205 180.395 40.9261 180.395 43.1462C180.395 45.3662 180.907 47.0998 181.929 48.347C182.977 49.5942 184.374 50.2178 186.12 50.2178C188.589 50.2178 190.223 49.1327 191.021 46.9626H195.624C195.025 49.0579 193.902 50.7292 192.256 51.9764C190.61 53.1986 188.564 53.8098 186.12 53.8098C184.149 53.8098 182.403 53.3732 180.882 52.5002C179.36 51.6022 178.163 50.355 177.29 48.7586C176.442 47.1372 176.017 45.2664 176.017 43.1462ZM202.045 30.1253C201.271 30.1253 200.623 29.8634 200.099 29.3396C199.575 28.8158 199.313 28.1672 199.313 27.394C199.313 26.6207 199.575 25.9722 200.099 25.4483C200.623 24.9245 201.271 24.6626 202.045 24.6626C202.793 24.6626 203.429 24.9245 203.953 25.4483C204.477 25.9722 204.738 26.6207 204.738 27.394C204.738 28.1672 204.477 28.8158 203.953 29.3396C203.429 29.8634 202.793 30.1253 202.045 30.1253ZM204.14 32.8567V53.473H199.874V32.8567H204.14ZM218.682 53.8098C216.737 53.8098 214.978 53.3732 213.407 52.5002C211.835 51.6022 210.601 50.355 209.703 48.7586C208.805 47.1372 208.356 45.2664 208.356 43.1462C208.356 41.0509 208.817 39.1925 209.74 37.5712C210.663 35.9498 211.923 34.7026 213.519 33.8295C215.115 32.9565 216.899 32.52 218.87 32.52C220.84 32.52 222.624 32.9565 224.22 33.8295C225.816 34.7026 227.076 35.9498 227.999 37.5712C228.922 39.1925 229.383 41.0509 229.383 43.1462C229.383 45.2415 228.91 47.0998 227.962 48.7212C227.014 50.3425 225.717 51.6022 224.07 52.5002C222.449 53.3732 220.653 53.8098 218.682 53.8098ZM218.682 50.1056C219.78 50.1056 220.803 49.8437 221.751 49.3198C222.723 48.796 223.509 48.0103 224.108 46.9626C224.706 45.915 225.006 44.6428 225.006 43.1462C225.006 41.6495 224.719 40.3898 224.145 39.3671C223.571 38.3195 222.811 37.5337 221.863 37.0099C220.915 36.4861 219.892 36.2242 218.795 36.2242C217.697 36.2242 216.674 36.4861 215.727 37.0099C214.804 37.5337 214.068 38.3195 213.519 39.3671C212.97 40.3898 212.696 41.6495 212.696 43.1462C212.696 45.3662 213.257 47.0873 214.38 48.3096C215.527 49.5069 216.961 50.1056 218.682 50.1056Z" fill="white"/>
<rect opacity="0.2" width="74.8323" height="74.8323" rx="37.4161" fill="white"/>
<rect x="32.7393" y="31.1801" width="49.8882" height="49.8882" rx="24.9441" fill="white"/>
</svg>
