<svg width="149" height="52" viewBox="0 0 149 52" fill="none" xmlns="http://www.w3.org/2000/svg">
<path d="M72.296 34.168C71.176 34.168 70.168 33.976 69.272 33.592C68.376 33.192 67.672 32.632 67.16 31.912C66.648 31.192 66.392 30.352 66.392 29.392H69.32C69.384 30.112 69.664 30.704 70.16 31.168C70.672 31.632 71.384 31.864 72.296 31.864C73.24 31.864 73.976 31.64 74.504 31.192C75.032 30.728 75.296 30.136 75.296 29.416C75.296 28.856 75.128 28.4 74.792 28.048C74.472 27.696 74.064 27.424 73.568 27.232C73.088 27.04 72.416 26.832 71.552 26.608C70.464 26.32 69.576 26.032 68.888 25.744C68.216 25.44 67.64 24.976 67.16 24.352C66.68 23.728 66.44 22.896 66.44 21.856C66.44 20.896 66.68 20.056 67.16 19.336C67.64 18.616 68.312 18.064 69.176 17.68C70.04 17.296 71.04 17.104 72.176 17.104C73.792 17.104 75.112 17.512 76.136 18.328C77.176 19.128 77.752 20.232 77.864 21.64H74.84C74.792 21.032 74.504 20.512 73.976 20.08C73.448 19.648 72.752 19.432 71.888 19.432C71.104 19.432 70.464 19.632 69.968 20.032C69.472 20.432 69.224 21.008 69.224 21.76C69.224 22.272 69.376 22.696 69.68 23.032C70 23.352 70.4 23.608 70.88 23.8C71.36 23.992 72.016 24.2 72.848 24.424C73.952 24.728 74.848 25.032 75.536 25.336C76.24 25.64 76.832 26.112 77.312 26.752C77.808 27.376 78.056 28.216 78.056 29.272C78.056 30.12 77.824 30.92 77.36 31.672C76.912 32.424 76.248 33.032 75.368 33.496C74.504 33.944 73.48 34.168 72.296 34.168ZM84.0204 22.72C84.4844 22.112 85.1164 21.6 85.9164 21.184C86.7164 20.768 87.6204 20.56 88.6284 20.56C89.7804 20.56 90.8284 20.848 91.7724 21.424C92.7324 21.984 93.4844 22.776 94.0284 23.8C94.5724 24.824 94.8444 26 94.8444 27.328C94.8444 28.656 94.5724 29.848 94.0284 30.904C93.4844 31.944 92.7324 32.76 91.7724 33.352C90.8284 33.928 89.7804 34.216 88.6284 34.216C87.6204 34.216 86.7244 34.016 85.9404 33.616C85.1564 33.2 84.5164 32.688 84.0204 32.08V40.288H81.2844V20.776H84.0204V22.72ZM92.0604 27.328C92.0604 26.416 91.8684 25.632 91.4844 24.976C91.1164 24.304 90.6204 23.8 89.9964 23.464C89.3884 23.112 88.7324 22.936 88.0284 22.936C87.3404 22.936 86.6844 23.112 86.0604 23.464C85.4524 23.816 84.9564 24.328 84.5724 25C84.2044 25.672 84.0204 26.464 84.0204 27.376C84.0204 28.288 84.2044 29.088 84.5724 29.776C84.9564 30.448 85.4524 30.96 86.0604 31.312C86.6844 31.664 87.3404 31.84 88.0284 31.84C88.7324 31.84 89.3884 31.664 89.9964 31.312C90.6204 30.944 91.1164 30.416 91.4844 29.728C91.8684 29.04 92.0604 28.24 92.0604 27.328ZM96.638 27.328C96.638 26 96.91 24.824 97.454 23.8C98.014 22.776 98.766 21.984 99.71 21.424C100.67 20.848 101.726 20.56 102.878 20.56C103.918 20.56 104.822 20.768 105.59 21.184C106.374 21.584 106.998 22.088 107.462 22.696V20.776H110.222V34H107.462V32.032C106.998 32.656 106.366 33.176 105.566 33.592C104.766 34.008 103.854 34.216 102.83 34.216C101.694 34.216 100.654 33.928 99.71 33.352C98.766 32.76 98.014 31.944 97.454 30.904C96.91 29.848 96.638 28.656 96.638 27.328ZM107.462 27.376C107.462 26.464 107.27 25.672 106.886 25C106.518 24.328 106.03 23.816 105.422 23.464C104.814 23.112 104.158 22.936 103.454 22.936C102.75 22.936 102.094 23.112 101.486 23.464C100.878 23.8 100.382 24.304 99.998 24.976C99.63 25.632 99.446 26.416 99.446 27.328C99.446 28.24 99.63 29.04 99.998 29.728C100.382 30.416 100.878 30.944 101.486 31.312C102.11 31.664 102.766 31.84 103.454 31.84C104.158 31.84 104.814 31.664 105.422 31.312C106.03 30.96 106.518 30.448 106.886 29.776C107.27 29.088 107.462 28.288 107.462 27.376ZM112.904 27.376C112.904 26.016 113.176 24.824 113.72 23.8C114.28 22.76 115.048 21.96 116.024 21.4C117 20.84 118.12 20.56 119.384 20.56C120.984 20.56 122.304 20.944 123.344 21.712C124.4 22.464 125.112 23.544 125.48 24.952H122.528C122.288 24.296 121.904 23.784 121.376 23.416C120.848 23.048 120.184 22.864 119.384 22.864C118.264 22.864 117.368 23.264 116.696 24.064C116.04 24.848 115.712 25.952 115.712 27.376C115.712 28.8 116.04 29.912 116.696 30.712C117.368 31.512 118.264 31.912 119.384 31.912C120.968 31.912 122.016 31.216 122.528 29.824H125.48C125.096 31.168 124.376 32.24 123.32 33.04C122.264 33.824 120.952 34.216 119.384 34.216C118.12 34.216 117 33.936 116.024 33.376C115.048 32.8 114.28 32 113.72 30.976C113.176 29.936 112.904 28.736 112.904 27.376ZM129.598 19.024C129.102 19.024 128.686 18.856 128.35 18.52C128.014 18.184 127.846 17.768 127.846 17.272C127.846 16.776 128.014 16.36 128.35 16.024C128.686 15.688 129.102 15.52 129.598 15.52C130.078 15.52 130.486 15.688 130.822 16.024C131.158 16.36 131.326 16.776 131.326 17.272C131.326 17.768 131.158 18.184 130.822 18.52C130.486 18.856 130.078 19.024 129.598 19.024ZM130.942 20.776V34H128.206V20.776H130.942ZM140.27 34.216C139.022 34.216 137.894 33.936 136.886 33.376C135.878 32.8 135.086 32 134.51 30.976C133.934 29.936 133.646 28.736 133.646 27.376C133.646 26.032 133.942 24.84 134.534 23.8C135.126 22.76 135.934 21.96 136.958 21.4C137.982 20.84 139.126 20.56 140.39 20.56C141.654 20.56 142.798 20.84 143.822 21.4C144.846 21.96 145.654 22.76 146.246 23.8C146.838 24.84 147.134 26.032 147.134 27.376C147.134 28.72 146.83 29.912 146.222 30.952C145.614 31.992 144.782 32.8 143.726 33.376C142.686 33.936 141.534 34.216 140.27 34.216ZM140.27 31.84C140.974 31.84 141.63 31.672 142.238 31.336C142.862 31 143.366 30.496 143.75 29.824C144.134 29.152 144.326 28.336 144.326 27.376C144.326 26.416 144.142 25.608 143.774 24.952C143.406 24.28 142.918 23.776 142.31 23.44C141.702 23.104 141.046 22.936 140.342 22.936C139.638 22.936 138.982 23.104 138.374 23.44C137.782 23.776 137.31 24.28 136.958 24.952C136.606 25.608 136.43 26.416 136.43 27.376C136.43 28.8 136.79 29.904 137.51 30.688C138.246 31.456 139.166 31.84 140.27 31.84Z" fill="#FA7275"/>
<rect opacity="0.2" width="48" height="48" rx="24" fill="#FA7275"/>
<rect x="21" y="20" width="32" height="32" rx="16" fill="#FA7275"/>
</svg>
